<svg xmlns="http://www.w3.org/2000/svg" xmlns:xlink="http://www.w3.org/1999/xlink" width="500" zoomAndPan="magnify" viewBox="0 0 375 374.999991" height="500" preserveAspectRatio="xMidYMid meet" version="1.0"><defs><clipPath id="97454fa5f5"><path d="M -23.632812 -18.953125 L 365.429688 -18.953125 C 370.007812 -18.953125 374.394531 -17.136719 377.628906 -13.902344 C 380.863281 -10.667969 382.679688 -6.28125 382.679688 -1.703125 L 382.679688 396.496094 C 382.679688 401.070312 380.863281 405.457031 377.628906 408.691406 C 374.394531 411.925781 370.007812 413.746094 365.429688 413.746094 L -23.632812 413.746094 C -28.210938 413.746094 -32.597656 411.925781 -35.832031 408.691406 C -39.066406 405.457031 -40.882812 401.070312 -40.882812 396.496094 L -40.882812 -1.703125 C -40.882812 -6.28125 -39.066406 -10.667969 -35.832031 -13.902344 C -32.597656 -17.136719 -28.210938 -18.953125 -23.632812 -18.953125 Z M -23.632812 -18.953125 " clip-rule="nonzero"/></clipPath></defs><g clip-path="url(#97454fa5f5)"><rect x="-37.5" width="450" fill="#f9fdf1" y="-37.499999" height="449.999989" fill-opacity="1"/></g><path fill="#242424" d="M 236.675781 27.996094 L 236.675781 82.117188 L 227.34375 88.835938 L 227.34375 34.015625 L 218.011719 30 L 218.011719 95.550781 L 209.265625 101.851562 L 208.679688 102.269531 L 208.679688 26.011719 L 199.347656 22 L 199.347656 343.503906 L 190.019531 343.503906 L 190.019531 18.011719 L 180.6875 13.996094 L 180.6875 343.503906 L 171.359375 343.503906 L 171.359375 0.00390625 L 180.6875 3.992188 L 190.019531 8.003906 L 199.347656 11.992188 L 208.679688 16.007812 L 218.011719 19.996094 L 227.34375 24.007812 L 236.675781 27.996094 " fill-opacity="1" fill-rule="nonzero"/><path fill="#333333" d="M 171.359375 0.00390625 L 171.359375 343.503906 L 155.5625 343.503906 L 155.5625 161.410156 L 152.648438 159.332031 L 148.84375 156.578125 L 141.195312 151.074219 L 133.566406 145.566406 L 132.46875 144.773438 L 132.46875 27.996094 L 171.359375 0.00390625 " fill-opacity="1" fill-rule="nonzero"/><path fill="#242424" d="M 298.890625 107.542969 L 298.890625 343.503906 L 291.214844 343.503906 L 291.214844 112.488281 L 283.5625 109.175781 L 283.5625 343.503906 L 275.886719 343.503906 L 275.886719 105.910156 L 268.238281 102.621094 L 268.238281 343.503906 L 260.585938 343.503906 L 260.585938 99.332031 L 252.910156 96.042969 L 252.910156 343.503906 L 245.257812 343.503906 L 245.257812 84.566406 L 252.910156 87.832031 L 260.585938 91.121094 L 268.238281 94.410156 L 275.886719 97.695312 L 283.5625 100.964844 L 291.214844 104.253906 L 298.890625 107.542969 " fill-opacity="1" fill-rule="nonzero"/><path fill="#333333" d="M 245.257812 84.566406 L 245.257812 343.503906 L 213.347656 343.503906 L 213.347656 107.542969 L 218.011719 104.1875 L 227.34375 97.464844 L 236.675781 90.746094 L 245.257812 84.566406 " fill-opacity="1" fill-rule="nonzero"/><path fill="#333333" d="M 122.414062 146.175781 L 122.414062 343.503906 L 116.140625 343.503906 L 116.140625 155.597656 L 109.886719 158.285156 L 109.886719 343.503906 L 103.613281 343.503906 L 103.613281 160.964844 L 97.335938 163.671875 L 97.335938 343.503906 L 91.0625 343.503906 L 91.0625 166.351562 L 84.789062 169.035156 L 84.789062 343.503906 L 78.511719 343.503906 L 78.511719 165.003906 L 84.789062 162.316406 L 91.0625 159.613281 L 97.335938 156.929688 L 103.613281 154.246094 L 109.886719 151.5625 L 116.140625 148.855469 L 122.414062 146.175781 " fill-opacity="1" fill-rule="nonzero"/><path fill="#242424" d="M 148.566406 165.003906 L 148.566406 343.503906 L 122.4375 343.503906 L 122.4375 146.195312 L 129.460938 151.261719 L 132.46875 153.40625 L 137.109375 156.742188 L 144.738281 162.246094 L 148.566406 165.003906 " fill-opacity="1" fill-rule="nonzero"/><path fill="#242424" d="M 330.601562 374.996094 L 46.777344 374.996094 C 40.386719 374.996094 37.523438 366.984375 42.46875 362.933594 L 64.339844 345.042969 C 65.554688 344.046875 67.074219 343.503906 68.644531 343.503906 L 308.734375 343.503906 C 310.300781 343.503906 311.824219 344.046875 313.039062 345.042969 L 334.90625 362.933594 C 339.855469 366.984375 336.992188 374.996094 330.601562 374.996094 " fill-opacity="1" fill-rule="nonzero"/></svg>